<?xml version="1.0" encoding="utf-8"?>
<!-- Uploaded to: SVG Repo, www.svgrepo.com, Generator: SVG Repo Mixer Tools -->
<svg fill="#000000" width="800px" height="800px" viewBox="-7 0 32 32" version="1.1" xmlns="http://www.w3.org/2000/svg">
<title>headphones</title>
<path d="M13.88 24.16c-0.48 0-0.84-0.36-0.84-0.84v-4.76c0-0.48 0.36-0.84 0.84-0.84s0.84 0.36 0.84 0.84v4.76c0 0.48-0.36 0.84-0.84 0.84zM3.84 24.16c-0.48 0-0.84-0.36-0.84-0.84v-4.76c0-0.48 0.36-0.84 0.84-0.84s0.84 0.36 0.84 0.84v4.76c-0.040 0.48-0.44 0.84-0.84 0.84zM16.76 21.8c-0.040 0-0.080 0-0.12 0-0.44-0.080-0.76-0.48-0.72-0.96 0-0.040 0.84-6-1.92-9.24-1.2-1.36-2.92-2.080-5.12-2.080s-3.92 0.68-5.12 2.080c-2.8 3.24-1.92 9.16-1.92 9.24 0.080 0.44-0.24 0.88-0.72 0.96-0.44 0.080-0.88-0.24-0.96-0.72-0.080-0.28-0.96-6.76 2.28-10.6 1.52-1.76 3.68-2.68 6.4-2.68s4.88 0.88 6.4 2.68c3.28 3.8 2.36 10.32 2.32 10.56-0.040 0.44-0.4 0.76-0.8 0.76z"></path>
</svg>