<svg version="1.2" xmlns="http://www.w3.org/2000/svg" viewBox="0 0 800 800" width="800" height="800"><style>.a{fill:none;stroke:#000;stroke-miterlimit:100;stroke-width:23}</style><path  d="m400 66.8q-0.1 0-0.3 0 0 0-0.1 0-0.2 0-0.4 0c-183.7 0.5-332.4 149.5-332.4 333.2 0 183.7 148.7 332.7 332.4 333.2q0.2 0 0.4 0 0.1 0 0.1 0 0.2 0 0.3 0c184 0 333.2-149.2 333.2-333.2 0-184-149.2-333.2-333.2-333.2zm13.3 199.4c35.4-1 69.7-5.6 102.8-13.7 10 39.3 16.2 84.5 17.2 134.2h-120zm0-26.7v-143.9c36 9.9 72.4 57.8 95.6 131.2-30.8 7.5-62.8 11.8-95.6 12.7zm-26.6-144.3v144.3c-33.1-0.9-65.3-5.3-96.3-12.8 23.4-73.9 60.1-122 96.3-131.5zm0 171v120.5h-120.8c1-49.7 7.2-95.1 17.2-134.4 33.3 8.2 68 12.9 103.6 13.9zm-147.6 120.5h-145.3c3-68.6 28.5-131.3 69.3-181.1 29.7 16.4 61.2 29.8 94.2 39.8-10.8 42.5-17.2 90.4-18.2 141.3zm0 26.6c1 50.9 7.4 98.8 18.2 141.3-33 10-64.5 23.4-94.2 39.7-40.8-49.7-66.4-112.5-69.3-181zm26.8 0h120.8v120.4c-35.6 0.9-70.3 5.7-103.6 13.8-10-39.3-16.2-84.5-17.2-134.2zm120.8 147v144.4c-36.2-9.4-73-57.6-96.4-131.6 31.1-7.5 63.3-11.9 96.4-12.8zm26.7 144.1v-144.1c32.8 0.9 64.7 5.3 95.5 12.7-23.2 73.5-59.6 121.5-95.5 131.4zm0-170.7v-120.4h119.9c-1 49.6-7.1 94.8-17.1 134-33.1-8-67.5-12.7-102.8-13.6zm146.7-120.4h146.2c-3 68.5-28.5 131.3-69.4 181-29.9-16.5-61.6-29.9-94.9-40 10.7-42.4 17.2-90.3 18.1-141zm0-26.7c-0.9-50.8-7.4-98.6-18.2-141.1 33.3-10.1 65-23.5 94.9-40 40.9 49.8 66.5 112.6 69.4 181.1 0 0-146.1 0-146.1 0zm58.4-201.4c-26.6 14.1-54.5 25.8-83.8 34.6-15.6-50.1-37.4-91-63.3-117.9 56.7 13.6 107.4 43 147.1 83.3zm-290.9-83.1c-25.7 26.9-47.5 67.6-63 117.5-29-8.9-56.7-20.4-83-34.4 39.4-40.1 89.7-69.4 146-83.1zm-146.1 512.5c26.3-14 54.1-25.6 83-34.4 15.6 50 37.3 90.8 63.1 117.6-56.4-13.7-106.7-43.1-146.1-83.2zm289.9 83.4c25.9-26.8 47.8-67.8 63.4-118 29.2 8.9 57.2 20.5 83.7 34.7-39.6 40.3-90.3 69.8-147.1 83.3z"/><path fill-rule="evenodd" class="a" d="m724.3 53l3.7 3.2-654.3 692.6-3.7-3.2z"/></svg>