<?xml version="1.0"?>
<svg width="64" height="80" xmlns="http://www.w3.org/2000/svg" xmlns:svg="http://www.w3.org/2000/svg" version="1.2">
 <style>.a{fill:none}</style>
 <g class="layer" display="inline">
  <title>Layer 1</title>
  <path class="a" d="m64,9l0,64l-64,0l0,-64l64,0z" fill-rule="evenodd" id="svg_1"/>
  <path d="m31.9,45.9l-4,4c-0.5,0.6 -0.5,1.6 0,2.2l4,4c0.6,0.5 1.6,0.5 2.2,0c0.5,-0.6 0.5,-1.6 0,-2.2l-3,-2.9l3,-2.9c0.5,-0.6 0.5,-1.6 0,-2.2c-0.6,-0.5 -1.6,-0.5 -2.2,0z" fill-rule="evenodd" id="svg_2"/>
  <path d="m36.9,41.1l4,4c0.6,0.5 1.6,0.5 2.2,0l4,-4c0.5,-0.6 0.5,-1.6 0,-2.2c-0.6,-0.5 -1.6,-0.5 -2.2,0l-2.9,3l-2.9,-3c-0.6,-0.5 -1.6,-0.5 -2.2,0c-0.5,0.6 -0.5,1.6 0,2.2z" fill-rule="evenodd" id="svg_3"/>
  <path d="m23.1,48.7c-4.6,-0.9 -8.3,-2.4 -10.6,-4.3c-1.2,-1 -2,-2.2 -2,-3.4c0,-1.8 1.5,-3.3 3.7,-4.6c4,-2.4 10.5,-3.9 17.8,-3.9c7.3,0 13.8,1.5 17.8,3.9c2.2,1.3 3.7,2.8 3.7,4.6c0,1.8 -1.5,3.3 -3.7,4.6c-4,2.4 -10.5,3.9 -17.8,3.9l-3,0c-0.8,0 -1.5,0.7 -1.5,1.5c0,0.8 0.7,1.5 1.5,1.5l3,0c7.9,0 15,-1.7 19.3,-4.3c3.4,-2 5.2,-4.6 5.2,-7.2c0,-2.6 -1.8,-5.2 -5.2,-7.2c-4.3,-2.6 -11.4,-4.3 -19.3,-4.3c-7.9,0 -15,1.7 -19.3,4.3c-3.4,2 -5.2,4.6 -5.2,7.2c0,2 1.1,4 3.1,5.7c2.5,2.2 6.8,4 11.9,4.9c0.9,0.2 1.6,-0.3 1.8,-1.1c0.2,-0.9 -0.4,-1.6 -1.2,-1.8z" fill-rule="evenodd" id="svg_4"/>
  <path d="m39.7,49.9c-0.9,4.6 -2.4,8.3 -4.3,10.6c-1,1.2 -2.2,2 -3.4,2c-1.8,0 -3.3,-1.5 -4.6,-3.7c-2.4,-4 -3.9,-10.5 -3.9,-17.8c0,-7.3 1.5,-13.8 3.9,-17.8c1.3,-2.2 2.8,-3.7 4.6,-3.7c1.8,0 3.3,1.5 4.6,3.7c2.4,4 3.9,10.5 3.9,17.8l0,3c0,0.8 0.7,1.5 1.5,1.5c0.8,0 1.5,-0.7 1.5,-1.5l0,-3c0,-7.9 -1.7,-15 -4.3,-19.3c-2,-3.4 -4.6,-5.2 -7.2,-5.2c-2.6,0 -5.2,1.8 -7.2,5.2c-2.6,4.3 -4.3,11.4 -4.3,19.3c0,7.9 1.7,15 4.3,19.3c2,3.4 4.6,5.2 7.2,5.2c2,0 4,-1.1 5.7,-3.1c2.2,-2.5 4,-6.8 4.9,-11.9c0.2,-0.9 -0.3,-1.6 -1.1,-1.8c-0.9,-0.2 -1.6,0.4 -1.8,1.2z" fill-rule="evenodd" id="svg_5"/>
 </g>
</svg>