<?xml version="1.0"?>
<svg width="32" height="40" xmlns="http://www.w3.org/2000/svg" xmlns:svg="http://www.w3.org/2000/svg" version="1.2">
 <style/>
 <g class="layer">
  <title>Layer 1</title>
  <path d="m2.8,13.4q-0.1,0 -0.3,-0.1q-0.1,0 -0.3,-0.1q-0.1,-0.1 -0.1,-0.3q-0.1,-0.1 -0.1,-0.3q0,-0.2 0.1,-0.3q0,-0.2 0.1,-0.3q0.2,-0.1 0.3,-0.2q0.2,0 0.3,0l5,0l0,1.6l-5,0zm21.4,0.8l0,10.7l-1.7,0l0,-10.7q0,-0.1 0,-0.3q-0.1,-0.1 -0.2,-0.2q-0.1,-0.2 -0.3,-0.2q-0.1,-0.1 -0.3,-0.1l-10.7,0l0,-1.6l10.7,0q0.5,0 1,0.1q0.4,0.2 0.8,0.6q0.3,0.3 0.5,0.8q0.2,0.4 0.2,0.9zm-1.7,14l-12.3,0q-0.5,0 -1,-0.2q-0.4,-0.2 -0.8,-0.5q-0.3,-0.3 -0.5,-0.8q-0.2,-0.4 -0.2,-0.9l0,-12.4l1.7,0l0,12.4q0,0.1 0,0.3q0.1,0.1 0.2,0.2q0.1,0.2 0.3,0.2q0.1,0.1 0.3,0.1l18.9,0q0.2,0 0.3,0q0.2,0.1 0.3,0.2q0.1,0.1 0.2,0.3q0.1,0.1 0.1,0.3q-0.1,0.2 -0.1,0.3q-0.1,0.2 -0.2,0.3q-0.1,0.1 -0.3,0.2q-0.1,0 -0.3,0l-4.9,0l0,-1.6l-1.7,0l0,1.6zm0,0l1.7,0l0,4.3l2.2,0l-3,3l-3,-3l2.1,0l0,-4.3zm-13.1,-16.5l-1.7,0l0,-4.3l-2,0l3,-3l3,3l-2.3,0l0,4.3z" fill-rule="evenodd" id="svg_1"/>
 </g>
</svg>