<?xml version="1.0"?>
<svg width="110" height="135" xmlns="http://www.w3.org/2000/svg" xmlns:svg="http://www.w3.org/2000/svg" version="1.2">
 <style/>
 <g class="layer">
  <title>Layer 1</title>
  <path d="m23.6,97.5l12.2,0c0.5,0 0.9,-0.3 1.2,-0.7c0.2,-0.4 0.2,-0.9 0,-1.3l-2.1,-3.5l19.9,-11.4c0.1,-0.1 0.3,-0.1 0.4,0l19.9,11.4l-2.1,3.5c-0.2,0.4 -0.2,0.9 0,1.3c0.3,0.4 0.7,0.7 1.2,0.7l12.2,0c0.4,0 0.9,-0.3 1.1,-0.7c0.2,-0.4 0.2,-0.9 0,-1.3l-6.1,-10.6c-0.2,-0.4 -0.7,-0.6 -1.1,-0.6c-0.5,0 -0.9,0.2 -1.2,0.6l-2,3.6l-19.8,-11.5c-0.1,-0.1 -0.2,-0.2 -0.2,-0.4l0,-22.9l4,0c0.5,0 0.9,-0.2 1.1,-0.6c0.3,-0.4 0.3,-0.9 0,-1.3l-6.1,-10.6c-0.2,-0.4 -0.6,-0.7 -1.1,-0.7c-0.5,0 -0.9,0.3 -1.1,0.7l-6.1,10.6c-0.3,0.4 -0.3,0.9 0,1.3c0.2,0.4 0.6,0.6 1.1,0.6l4,0l0,22.9c0,0.2 -0.1,0.3 -0.2,0.4l-19.8,11.5l-2,-3.6c-0.3,-0.4 -0.7,-0.6 -1.2,-0.6c-0.4,0 -0.9,0.2 -1.1,0.6l-6.1,10.6c-0.2,0.4 -0.2,0.9 0,1.3c0.2,0.4 0.7,0.7 1.1,0.7z" id="svg_1"/>
 </g>
</svg>