<?xml version="1.0" encoding="iso-8859-1"?>
<!-- Uploaded to: SVG Repo, www.svgrepo.com, Generator: SVG Repo Mixer Tools -->
<!DOCTYPE svg PUBLIC "-//W3C//DTD SVG 1.1//EN" "http://www.w3.org/Graphics/SVG/1.1/DTD/svg11.dtd">
<svg fill="#000000" height="800px" width="800px" version="1.1" id="Capa_1" xmlns="http://www.w3.org/2000/svg" xmlns:xlink="http://www.w3.org/1999/xlink" 
	 viewBox="0 0 297 297" xml:space="preserve">
<g>
	<path d="M286.831,263.579c5.616,0,10.169-4.553,10.169-10.169v-33.559c0-5.616-4.553-10.169-10.169-10.169
		s-10.169,4.553-10.169,10.169v23.389h-46.779v-23.389c0-5.616-4.553-10.169-10.169-10.169h-7.466
		c11.164-17.735,17.635-38.715,17.635-61.183c0-63.455-51.563-115.078-114.942-115.078C51.562,33.421,0,85.044,0,148.499V253.41
		c0,5.616,4.553,10.169,10.169,10.169H286.831z M102.259,243.241h-81.92v-94.742c0-52.24,42.438-94.74,94.602-94.74
		c52.165,0,94.604,42.5,94.604,94.74c0,52.241-42.439,94.742-94.604,94.742H102.259z M195.989,230.021h13.556v13.22h-29.436
		C185.791,239.31,191.108,234.885,195.989,230.021z"/>
	<path d="M172.427,152.735c0-33.364-27.143-60.507-60.507-60.507s-60.507,27.143-60.507,60.507s27.143,60.507,60.507,60.507
		S172.427,186.098,172.427,152.735z M111.919,192.903c-22.149,0-40.169-18.02-40.169-40.169s18.02-40.169,40.169-40.169
		s40.169,18.02,40.169,40.169S134.068,192.903,111.919,192.903z"/>
	<path d="M123.614,130.362h-21.355c-4.493,0-8.135,3.643-8.135,8.135c0,4.493,3.643,8.135,8.135,8.135h8.192l-10.892,21.784
		c-2.009,4.019-0.38,8.906,3.638,10.915c1.169,0.584,2.409,0.861,3.633,0.861c2.984,0,5.857-1.649,7.282-4.499l16.779-33.559
		c1.261-2.522,1.126-5.518-0.356-7.916C129.052,131.822,126.434,130.362,123.614,130.362z"/>
</g>
</svg>